<svg width="156" height="42" viewBox="0 0 156 42" fill="none" xmlns="http://www.w3.org/2000/svg">
<path fill-rule="evenodd" clip-rule="evenodd" d="M50.2298 25.8122C49.7008 25.9747 49.1458 26.5335 48.9292 27.1207C48.5367 28.1874 48.8711 29.4033 49.7118 29.959C50.1207 30.2298 50.8978 30.4245 51.3311 30.3656C51.6514 30.3217 52.4512 30.0242 52.4512 29.9488C52.4512 29.93 52.3766 29.7408 52.2856 29.5297L52.12 29.145L51.8178 29.2997C51.3837 29.521 50.6757 29.51 50.324 29.2769C49.7675 28.9072 49.5501 28.0312 49.8515 27.3742C50.0226 27.0006 50.1984 26.8334 50.587 26.6709C50.9787 26.5069 51.1647 26.5194 51.6388 26.74L52.0431 26.9284L52.2008 26.5233C52.3869 26.0453 52.3507 25.9919 51.7126 25.802C51.2299 25.6583 50.7204 25.6623 50.2298 25.813" fill="white"/>
<path fill-rule="evenodd" clip-rule="evenodd" d="M65.3242 28.0405V30.3168H65.7952H66.2661V28.0405V25.7642H65.7952H65.3242V28.0405Z" fill="white"/>
<path fill-rule="evenodd" clip-rule="evenodd" d="M68.3224 26.1763L68.3459 26.5883L68.8758 26.6111L69.4056 26.6347V28.4753V30.3168H69.8766H70.3475V28.4722V26.6276H70.897H71.4464V26.1959V25.7642H69.8726H68.2988L68.3224 26.1763Z" fill="white"/>
<path fill-rule="evenodd" clip-rule="evenodd" d="M78.668 28.0405V30.3168H80.2378H81.8077V29.8851V29.4534H80.7088H79.6099V27.6088V25.7642H79.1389H78.668V28.0405Z" fill="white"/>
<path fill-rule="evenodd" clip-rule="evenodd" d="M62.7994 26.1794C62.4414 25.8451 62.0969 25.7634 61.049 25.7634H60.0654V30.3161H61.0074V28.9032L61.3802 28.9016C62.6 28.8953 63.2319 28.3475 63.2319 27.2941C63.2319 26.7893 63.1071 26.4659 62.7994 26.1794ZM61.4822 27.962H61.0081V26.6276H61.4822C62.0694 26.6276 62.3425 26.8396 62.3425 27.2948C62.3425 27.7501 62.0694 27.962 61.4822 27.962Z" fill="white"/>
<path fill-rule="evenodd" clip-rule="evenodd" d="M58.2365 30.2226C57.7262 29.0059 56.267 25.706 56.2152 25.6535C56.1736 25.6111 56.0849 25.7225 55.9962 25.9282C55.9146 26.1189 55.5017 27.0695 55.0794 28.0412C54.6571 29.013 54.2639 29.922 54.2042 30.0625L54.0967 30.3176H55.0025L55.1618 29.9055L55.3212 29.4934L56.1038 29.4714L56.8864 29.4494L57.0457 29.8639L57.205 30.2783L57.7419 30.3019C58.1587 30.3199 58.2694 30.3019 58.2365 30.2234V30.2226ZM56.1077 28.6684H55.683L55.8856 28.1582C55.997 27.878 56.1085 27.648 56.1344 27.648C56.1799 27.648 56.5331 28.5036 56.5331 28.6127C56.5331 28.6433 56.3416 28.6684 56.1085 28.6684H56.1077Z" fill="white"/>
<path fill-rule="evenodd" clip-rule="evenodd" d="M76.7618 30.2226C76.2516 29.0059 74.7924 25.706 74.7406 25.6535C74.699 25.6111 74.6103 25.7225 74.5216 25.9282C74.44 26.1189 74.0271 27.0695 73.6048 28.0412C73.1825 29.013 72.7893 29.922 72.7296 30.0625L72.6221 30.3176H73.5279L73.6872 29.9055L73.8466 29.4934L74.6292 29.4714L75.4117 29.4494L75.5711 29.8639L75.7304 30.2783L76.2673 30.3019C76.6841 30.3199 76.7948 30.3019 76.7618 30.2234V30.2226ZM74.6331 28.6684H74.2084L74.4109 28.1582C74.5224 27.878 74.6339 27.648 74.6598 27.648C74.7053 27.648 75.0585 28.5036 75.0585 28.6127C75.0585 28.6433 74.867 28.6684 74.6339 28.6684H74.6331Z" fill="white"/>
<path fill-rule="evenodd" clip-rule="evenodd" d="M48.8553 8.30945C48.1041 8.63677 47.9825 9.71371 48.6403 10.2153C48.8702 10.3903 49.021 10.4359 49.4425 10.457C50.0602 10.4877 50.415 10.3377 50.6858 9.93271C51.0469 9.39188 50.8334 8.63598 50.2345 8.33535C49.9079 8.1713 49.2031 8.15796 48.8553 8.30945Z" fill="white"/>
<path fill-rule="evenodd" clip-rule="evenodd" d="M66.5387 10.319C66.428 10.4061 66.1376 10.8496 65.8935 11.3048C65.3982 12.2279 65.3291 12.2797 64.6038 12.2797C64.1085 12.2797 63.9233 12.3967 64.0065 12.6581C64.0395 12.7609 64.2349 12.8684 64.6211 12.9956L65.1878 13.1824L65.2286 16.3222C65.2742 19.867 65.2781 19.8913 65.8809 20.407C67.0968 21.4478 69.6235 20.7626 69.6235 19.3921C69.6235 19.1825 69.5851 19.1064 69.4579 19.0663C69.3268 19.0247 69.2216 19.0899 68.9603 19.3748C68.64 19.7233 68.6125 19.7359 68.1808 19.7359C67.8142 19.7359 67.6989 19.7021 67.5466 19.5499C67.2216 19.2249 67.191 18.9141 67.191 15.8701V12.9854H68.1934C69.3307 12.9854 69.5733 12.9022 69.5301 12.5262L69.5058 12.3182L68.348 12.2962L67.1902 12.2742V11.2978C67.1902 10.4132 67.1761 10.3143 67.0387 10.2405C66.8276 10.1274 66.7695 10.1369 66.5395 10.3182" fill="white"/>
<path fill-rule="evenodd" clip-rule="evenodd" d="M58.6069 12.1635C58.0049 12.315 57.2207 12.7318 56.6124 13.2247L56.1234 13.6203V13.0277C56.1234 12.5293 56.0967 12.4092 55.9577 12.2694C55.7427 12.0544 55.5464 12.0873 54.2144 12.5559C53.2889 12.8817 52.9844 13.0489 52.9844 13.2294C52.9844 13.3911 53.2607 13.534 53.5723 13.534C54.212 13.534 54.1618 13.2647 54.1618 16.7114C54.1618 19.2272 54.1422 19.8104 54.0542 19.8834C53.9946 19.9328 53.7693 20.0254 53.5519 20.0898C53.1304 20.2154 53.0142 20.3614 53.1445 20.6039C53.2206 20.7468 53.329 20.7554 55.0605 20.7554C56.07 20.7554 56.9515 20.7342 57.0198 20.7076C57.1681 20.651 57.1846 20.3371 57.0457 20.2232C56.9915 20.1793 56.7976 20.1031 56.6155 20.0537C56.4326 20.005 56.2474 19.8975 56.2034 19.8159C56.154 19.7232 56.1234 18.6573 56.1234 16.9987V14.3307L56.4177 14.0866C56.5794 13.9524 56.9554 13.72 57.2521 13.5709C57.7003 13.3456 57.8785 13.2993 58.2945 13.2993C58.5708 13.2993 58.9107 13.3472 59.0504 13.4053C59.4484 13.5717 59.7859 14.0136 59.8871 14.5002C60.0065 15.0733 59.9664 19.7703 59.8416 19.8944C59.7929 19.943 59.5842 20.0254 59.3769 20.078C58.9476 20.1879 58.7843 20.3661 58.9177 20.5796C58.9962 20.7044 59.1831 20.717 60.9578 20.717H62.9115L62.9374 20.5364C62.9727 20.2845 62.8448 20.1604 62.4492 20.0608C62.2624 20.0137 62.0716 19.9297 62.0261 19.8747C61.9719 19.8096 61.9319 18.7797 61.9115 16.9493C61.8856 14.5568 61.8597 14.0615 61.7467 13.7161C61.5708 13.1815 60.9633 12.512 60.4539 12.293C59.9389 12.0716 59.1815 12.0183 58.6061 12.1635" fill="white"/>
<path fill-rule="evenodd" clip-rule="evenodd" d="M85.1907 12.1574C84.5078 12.3709 83.9952 12.8356 83.5855 13.6142L83.3994 13.9674L83.3602 13.1566C83.3021 11.9572 83.2888 11.9525 81.5941 12.5569C80.335 13.0059 80.3908 12.9792 80.3319 13.1644C80.2589 13.3944 80.4849 13.5357 80.9261 13.5357C81.1255 13.5357 81.3303 13.5781 81.3821 13.6299C81.5289 13.7767 81.5164 19.7627 81.3688 19.8851C81.3091 19.9346 81.0839 20.0272 80.8664 20.0915C80.4449 20.2171 80.3287 20.3631 80.459 20.6057C80.536 20.7493 80.6474 20.7572 82.7197 20.7572C84.9685 20.7572 85.0878 20.7415 85.0878 20.4369C85.0878 20.2242 84.9191 20.141 84.2982 20.046C83.3861 19.9063 83.4395 20.0554 83.4395 17.6198C83.4395 15.1841 83.4968 14.8089 83.8547 14.1346C84.1467 13.5852 84.5486 13.2838 85.007 13.272C85.456 13.2602 85.5808 13.4211 85.642 14.086C85.6993 14.7068 85.8265 14.907 86.2378 15.0208C86.8312 15.1849 87.3877 14.7814 87.4874 14.115C87.6303 13.1637 87.1106 12.3104 86.2809 12.1338C85.7676 12.0247 85.6075 12.0278 85.1914 12.1581" fill="white"/>
<path fill-rule="evenodd" clip-rule="evenodd" d="M49.9212 12.177C49.8561 12.1997 49.3443 12.3763 48.7831 12.5686C47.871 12.881 47.5664 13.0475 47.5664 13.2303C47.5664 13.392 47.8427 13.5349 48.1543 13.5349C48.7941 13.5349 48.7438 13.2657 48.7438 16.7123C48.7438 19.2281 48.7242 19.8113 48.6363 19.8843C48.5766 19.9337 48.3513 20.0264 48.1339 20.0907C47.7124 20.2163 47.5962 20.3623 47.7265 20.6049C47.8027 20.7477 47.9118 20.7564 49.7179 20.7564C51.2925 20.7564 51.645 20.7359 51.7235 20.6425C51.904 20.4251 51.7415 20.2155 51.2894 20.0844C51.0492 20.0146 50.8286 19.8968 50.7847 19.8144C50.736 19.7234 50.7062 18.305 50.7062 16.0522C50.7062 12.5412 50.7015 12.4321 50.5492 12.279C50.3969 12.1259 50.1653 12.089 49.9212 12.177Z" fill="white"/>
<path fill-rule="evenodd" clip-rule="evenodd" d="M78.6392 17.9463C78.461 17.9259 78.3927 17.9863 78.1541 18.3788C77.8629 18.8576 77.6564 19.0452 77.0779 19.3537C76.7647 19.5209 76.6266 19.5405 75.7851 19.5405C74.9437 19.5405 74.8142 19.5256 74.4115 19.3191C73.4311 18.8168 72.9154 18.0122 72.7301 16.6974L72.6838 16.3662L75.5559 16.3442L78.428 16.3214L78.6674 16.0538C78.9006 15.7932 78.9053 15.7704 78.8637 15.1903C78.8401 14.863 78.764 14.436 78.6941 14.2414C78.3699 13.3332 77.5622 12.5671 76.6258 12.2774C76.1226 12.122 75.0551 12.0247 74.6085 12.093C72.8126 12.3693 71.5472 13.5286 71.0629 15.3403C70.8526 16.126 70.8847 17.4109 71.1328 18.1739C71.6124 19.648 72.6618 20.5586 74.2521 20.8788C76.2349 21.2783 78.26 20.3725 78.7726 18.856C78.8417 18.6527 78.8864 18.3701 78.8723 18.2281C78.8519 18.0146 78.8111 17.9659 78.64 17.9455L78.6392 17.9463ZM72.7223 15.3999C72.9217 14.1048 73.4837 13.2374 74.3134 12.9415C74.7922 12.7704 75.3479 12.8026 75.8 13.0286C76.4374 13.3465 76.7883 13.969 76.8903 14.9659C76.972 15.7618 77.0512 15.7343 74.6737 15.7343H72.6705L72.7223 15.4007V15.3999Z" fill="white"/>
<path fill-rule="evenodd" clip-rule="evenodd" d="M90.7894 7.98375C89.9299 8.2781 89.6732 8.44765 89.8381 8.61248C89.8718 8.64624 90.1466 8.69883 90.4488 8.72865C90.751 8.75927 91.0241 8.82285 91.0555 8.86994C91.123 8.9712 91.1348 19.7084 91.0673 19.9596C91.0155 20.1527 90.926 20.2006 90.3695 20.3293C90.0288 20.4086 89.977 20.4455 89.977 20.6142V20.8089L91.7251 20.8301C93.2361 20.8481 93.4794 20.8348 93.5195 20.7312C93.5877 20.5522 93.4119 20.3882 93.0885 20.3301C92.7636 20.2712 92.5147 20.159 92.43 20.0318C92.3986 19.9847 92.3719 18.6856 92.3711 17.1464L92.3695 14.3473L92.908 13.9477C93.7526 13.3213 94.2581 13.1165 94.9598 13.1157C95.4426 13.1157 95.6113 13.1502 95.8986 13.3111C96.2848 13.5278 96.5642 13.8873 96.6851 14.3221C96.7903 14.6997 96.7911 19.8654 96.6867 20.0608C96.638 20.1527 96.4543 20.239 96.1961 20.2932C95.6812 20.4007 95.5642 20.4729 95.6003 20.6597C95.627 20.7987 95.7291 20.8073 97.3939 20.8073H99.1593V20.6127C99.1593 20.4415 99.109 20.407 98.7377 20.3246C98.5062 20.2728 98.2762 20.1911 98.2275 20.1425C98.1663 20.0812 98.1255 19.1377 98.0949 17.0945C98.0462 13.7986 98.0321 13.706 97.4975 13.0819C97.065 12.5764 96.5454 12.348 95.7338 12.3072C94.7447 12.257 94.1686 12.4626 93.0516 13.264C92.7141 13.5058 92.4237 13.7044 92.4048 13.7044C92.386 13.7044 92.3625 12.3535 92.3507 10.702L92.3303 7.6996L92.0163 7.6839C91.8208 7.67448 91.3569 7.78673 90.7871 7.98218" fill="white"/>
<path fill-rule="evenodd" clip-rule="evenodd" d="M114.389 12.389C113.79 12.6025 113.115 13.2752 112.822 13.9518C112.71 14.2092 112.707 14.1967 112.704 13.4949C112.7 12.6409 112.621 12.3725 112.37 12.3686C112.071 12.3639 110.196 13.0256 110.148 13.1527C110.075 13.3427 110.345 13.4706 110.817 13.4706C111.06 13.4706 111.3 13.513 111.352 13.5648C111.422 13.6347 111.446 14.4439 111.445 16.7242C111.445 18.4102 111.423 19.8663 111.398 19.9605C111.346 20.1536 111.257 20.2015 110.7 20.3302C110.36 20.4095 110.308 20.4464 110.308 20.6151V20.8098L112.281 20.831C113.985 20.8491 114.261 20.8357 114.3 20.7329C114.386 20.5068 114.262 20.3867 113.893 20.3388C113.051 20.2305 112.946 20.203 112.819 20.0625C112.698 19.9291 112.688 19.6952 112.719 17.5759C112.75 15.4118 112.766 15.1991 112.927 14.7399C113.306 13.6559 113.918 13.0781 114.687 13.0781C115.117 13.0781 115.236 13.2241 115.299 13.8301C115.345 14.276 115.39 14.3968 115.564 14.5468C116.019 14.9385 116.611 14.6504 116.684 14.0028C116.707 13.8019 116.701 13.5106 116.672 13.356C116.608 13.0146 116.211 12.5436 115.865 12.3992C115.568 12.2744 114.727 12.2689 114.389 12.3898" fill="white"/>
<path fill-rule="evenodd" clip-rule="evenodd" d="M153.4 12.389C152.802 12.6025 152.127 13.2752 151.834 13.9518C151.722 14.2092 151.719 14.1967 151.716 13.4949C151.712 12.6409 151.633 12.3725 151.381 12.3686C151.083 12.3639 149.208 13.0256 149.159 13.1527C149.086 13.3427 149.356 13.4706 149.829 13.4706C150.071 13.4706 150.312 13.513 150.363 13.5648C150.433 13.6347 150.458 14.4439 150.457 16.7242C150.457 18.4102 150.435 19.8663 150.41 19.9605C150.358 20.1536 150.268 20.2015 149.712 20.3302C149.371 20.4095 149.319 20.4464 149.319 20.6151V20.8098L151.293 20.831C152.997 20.8491 153.272 20.8357 153.312 20.7329C153.398 20.5068 153.274 20.3867 152.904 20.3388C152.063 20.2305 151.958 20.203 151.83 20.0625C151.71 19.9291 151.7 19.6952 151.731 17.5759C151.762 15.4118 151.778 15.1991 151.939 14.7399C152.318 13.6559 152.93 13.0781 153.699 13.0781C154.129 13.0781 154.248 13.2241 154.311 13.8301C154.357 14.276 154.402 14.3968 154.575 14.5468C155.031 14.9385 155.622 14.6504 155.695 14.0028C155.718 13.8019 155.713 13.5106 155.684 13.356C155.619 13.0146 155.223 12.5436 154.877 12.3992C154.579 12.2744 153.739 12.2689 153.401 12.3898" fill="white"/>
<path fill-rule="evenodd" clip-rule="evenodd" d="M139.272 12.7099C138.481 12.9854 138.326 13.0662 138.305 13.2122C138.277 13.4124 138.401 13.4571 139.075 13.4893L139.507 13.5097L139.546 16.3771L139.586 19.2437L139.849 19.7798C140.043 20.1739 140.206 20.3811 140.463 20.5624C141.616 21.3772 143.006 21.1982 144.54 20.0381L145.099 19.615L145.144 20.0553C145.179 20.4007 145.233 20.5342 145.397 20.6747C145.591 20.8426 145.661 20.8521 146.558 20.8317L147.513 20.8097V20.6134C147.513 20.4478 147.464 20.407 147.199 20.3521C147.026 20.3159 146.797 20.2445 146.689 20.1919L146.492 20.0969L146.453 16.3324C146.431 14.2617 146.386 12.5238 146.35 12.4697C146.242 12.3025 145.823 12.3692 144.844 12.7107C144.054 12.9862 143.898 13.067 143.878 13.213C143.849 13.4132 143.973 13.4579 144.648 13.4901L145.079 13.5105L145.1 16.2633L145.12 19.0161L144.668 19.352C143.906 19.918 143.347 20.1621 142.725 20.2013C142.234 20.232 142.13 20.2115 141.746 20.0098C141.397 19.8261 141.276 19.706 141.098 19.3654L140.88 18.947V15.8112C140.88 13.7994 140.851 12.6204 140.798 12.5231C140.677 12.2962 140.34 12.337 139.271 12.7099" fill="white"/>
<path fill-rule="evenodd" clip-rule="evenodd" d="M136.855 16.3702C136.753 14.3929 135.573 12.885 133.761 12.4156C133.123 12.25 131.881 12.2618 131.265 12.4384C129.844 12.8466 128.734 13.9824 128.367 15.4039C128.206 16.0287 128.205 17.2666 128.366 17.8867C128.946 20.123 131.106 21.4377 133.431 20.9699C134.355 20.7839 135.006 20.444 135.622 19.8278C136.525 18.9251 136.929 17.7932 136.855 16.3702ZM133.955 20.185C133.536 20.3749 133.36 20.4087 132.757 20.4118C132.135 20.4157 131.997 20.3898 131.597 20.1936C130.734 19.7697 130.083 18.8882 129.758 17.703C129.656 17.3317 129.62 16.9086 129.621 16.0993C129.622 15.1449 129.645 14.9423 129.799 14.5569C130.096 13.8128 130.73 13.217 131.462 12.9933C131.571 12.9604 131.949 12.9305 132.303 12.9266C133.194 12.9172 133.695 13.1126 134.277 13.6943C135.027 14.4447 135.417 15.4518 135.514 16.8835C135.624 18.5036 135.067 19.6802 133.955 20.1842V20.185Z" fill="white"/>
<path opacity="0.99" fill-rule="evenodd" clip-rule="evenodd" d="M126.371 15.0396C125.967 13.7233 125.156 12.8379 123.999 12.447C123.575 12.3041 123.37 12.2829 122.71 12.3119C121.748 12.3551 121.268 12.5294 120.482 13.1204L119.923 13.5412V10.6958C119.923 8.5874 119.899 7.82601 119.829 7.75615C119.67 7.59759 119.298 7.65803 118.314 8.00105C117.534 8.27264 117.372 8.35663 117.372 8.48614C117.372 8.61566 117.451 8.65412 117.961 8.72241L118.549 8.80169L118.589 14.8669C118.631 21.4 118.614 21.1551 119.02 21.0326C119.276 20.9557 119.363 20.8529 119.581 20.367C119.695 20.1135 119.812 19.9055 119.84 19.9055C119.868 19.9055 120.009 20.0263 120.153 20.1739C120.537 20.5695 121.298 20.9149 122.017 21.0185C122.752 21.1245 123.546 20.9942 124.289 20.6441C125.26 20.1873 126.153 19.0051 126.447 17.7853C126.62 17.0655 126.583 15.7288 126.371 15.038V15.0396ZM125.108 17.6849C124.922 18.7869 124.327 19.688 123.495 20.1292C123.145 20.3144 123.015 20.3372 122.317 20.3372C121.601 20.3372 121.491 20.3168 121.069 20.1033C120.814 19.9745 120.452 19.7194 120.265 19.5373L119.923 19.2053V14.2759L120.305 13.9187C120.714 13.5365 121.308 13.1997 121.787 13.0788C121.949 13.038 122.32 13.0184 122.612 13.0364C123.696 13.1016 124.583 13.8559 124.952 15.0271C125.162 15.6943 125.234 16.9313 125.108 17.6849Z" fill="white"/>
<path fill-rule="evenodd" clip-rule="evenodd" d="M108.306 20.1025C108.071 20.3521 107.732 20.3623 107.565 20.1245C107.46 19.9745 107.443 19.5468 107.443 17.0381C107.443 13.6778 107.432 13.6087 106.812 12.9886C106.304 12.4815 105.688 12.29 104.589 12.2994C104.151 12.3033 103.634 12.3504 103.439 12.4046C102.512 12.662 101.786 13.184 101.481 13.8151C101.062 14.6809 101.579 15.4188 102.372 15.0875C102.716 14.9439 102.812 14.7241 102.812 14.0734C102.812 13.1228 103.326 12.7264 104.494 12.7759C105.296 12.8096 105.677 13.0247 105.961 13.6024C106.133 13.9517 106.15 14.0922 106.175 15.4635C106.201 16.8787 106.195 16.9439 106.057 16.8905C105.649 16.7335 104.902 16.6119 104.334 16.6111C103.122 16.6087 102.253 16.885 101.604 17.4792C101.092 17.9478 100.906 18.3584 100.907 19.0177C100.91 20.1614 101.734 20.9102 103.142 21.0491C104.022 21.1363 105.257 20.754 105.932 20.1865C106.064 20.0758 106.189 19.9855 106.21 19.9855C106.231 19.9855 106.272 20.1033 106.298 20.2461C106.483 21.2289 108.276 21.3498 108.67 20.4063C108.874 19.9196 108.653 19.7351 108.308 20.1033L108.306 20.1025ZM106.187 18.4157V19.422L105.88 19.6653C105.158 20.2375 104.004 20.5232 103.325 20.2995C102.912 20.1629 102.439 19.7147 102.343 19.3686C102.069 18.3827 102.493 17.5687 103.459 17.2233C103.972 17.0404 105.233 17.0687 105.814 17.2759L106.187 17.4094V18.4157Z" fill="white"/>
<path fill-rule="evenodd" clip-rule="evenodd" d="M20.0114 0.102835C19.688 0.243339 19.3654 0.642874 19.3026 0.981183C19.257 1.22373 19.4242 4.68139 19.5506 6.11469L19.5954 6.6249H21.5389L21.5781 6.35018C21.6645 5.74891 21.8827 1.11541 21.834 0.919958C21.7602 0.62482 21.4031 0.225286 21.1009 0.0996951C20.7798 -0.0345297 20.3238 -0.0329598 20.0114 0.102835Z" fill="white"/>
<path fill-rule="evenodd" clip-rule="evenodd" d="M34.2231 5.29202C34.0505 5.35482 33.9013 5.40663 33.8911 5.40741C33.8809 5.40741 33.0198 6.37132 31.9766 7.54794C30.9335 8.72457 30.0072 9.76775 29.9185 9.86587L29.7568 10.0448L30.4185 10.7105C30.7828 11.0762 31.1038 11.3667 31.1313 11.3557C31.1595 11.3447 32.2058 10.4271 33.457 9.31641C34.8801 8.05344 35.7687 7.20806 35.8307 7.05892C35.9704 6.72062 35.8974 6.03615 35.6902 5.74493C35.3825 5.31322 34.7247 5.10992 34.2224 5.29281" fill="white"/>
<path fill-rule="evenodd" clip-rule="evenodd" d="M6.23943 5.82026C5.8344 6.09656 5.66799 6.37521 5.63502 6.83754C5.61148 7.16722 5.64287 7.31478 5.78495 7.55027C5.94037 7.80694 9.87449 11.3737 10.0024 11.3737C10.0283 11.3737 10.3549 11.0644 10.7277 10.6869L11.4059 10.0001L9.60133 7.97413C8.60916 6.85952 7.68529 5.87991 7.54792 5.79592C7.19313 5.57928 6.57538 5.59106 6.23864 5.82026" fill="white"/>
<path fill-rule="evenodd" clip-rule="evenodd" d="M19.8203 10.8047C19.8203 10.8369 19.891 11.9759 19.9757 13.3362C20.0605 14.6965 20.1312 15.888 20.1319 15.9853C20.1335 16.147 20.1704 16.1619 20.5652 16.1619C20.8031 16.1619 20.9977 16.1352 20.9977 16.1031C20.9977 16.0709 21.0684 14.9319 21.1531 13.5716C21.2379 12.2113 21.3086 11.0198 21.3093 10.9225C21.3109 10.7513 21.2866 10.7458 20.5652 10.7458C20.1555 10.7458 19.8203 10.7725 19.8203 10.8047Z" fill="white"/>
<path fill-rule="evenodd" clip-rule="evenodd" d="M13.6028 13.6305L13.0801 14.1603L14.7685 15.6517C15.6971 16.472 16.6154 17.2804 16.8085 17.4476L17.161 17.7522L17.4302 17.4908C17.5786 17.3472 17.6995 17.1996 17.6995 17.1627C17.6995 17.1054 14.9498 13.9664 14.3305 13.3157L14.1248 13.0999L13.6021 13.6297" fill="white"/>
<path fill-rule="evenodd" clip-rule="evenodd" d="M25.19 15.1886L23.4082 17.198L23.6814 17.4712L23.9545 17.7444L25.9687 15.9602C27.0762 14.979 27.9828 14.147 27.9828 14.1117C27.9828 14.023 27.1335 13.1799 27.044 13.1799C27.0048 13.1799 26.1704 14.0842 25.1908 15.1894" fill="white"/>
<path fill-rule="evenodd" clip-rule="evenodd" d="M0.58792 19.4782C0.13344 19.7875 0 20.0403 0 20.5889C0 21.0026 0.0337524 21.1243 0.214289 21.3613C0.342234 21.5293 0.569082 21.6965 0.777091 21.775C1.10284 21.899 1.26297 21.8998 3.27085 21.7813C4.45061 21.7114 5.69003 21.6329 6.02442 21.6062L6.63275 21.5576V20.5882C6.63275 19.6454 6.62804 19.618 6.45613 19.5834C6.21437 19.5355 1.91996 19.2977 1.32655 19.3001C0.960767 19.3016 0.78651 19.3432 0.58792 19.4782Z" fill="white"/>
<path fill-rule="evenodd" clip-rule="evenodd" d="M36.5779 19.461C35.4554 19.5356 34.5347 19.6015 34.5316 19.6062C34.4908 19.6737 34.5363 21.578 34.5787 21.578C34.6109 21.578 35.7977 21.651 37.2169 21.7405C38.636 21.83 39.9304 21.8857 40.0937 21.8653C40.4681 21.8182 40.9178 21.4799 41.0607 21.1384C41.3221 20.5128 41.1227 19.8668 40.5481 19.4798C40.3103 19.3197 40.1981 19.3025 39.4508 19.3134C38.9932 19.3197 37.7004 19.3864 36.5779 19.461Z" fill="white"/>
<path fill-rule="evenodd" clip-rule="evenodd" d="M31.1523 20.5969C31.1523 21.0717 31.1657 21.2562 31.1814 21.0058C31.1971 20.7562 31.1971 20.3677 31.1814 20.1424C31.1657 19.9171 31.1531 20.122 31.1531 20.5969" fill="white"/>
<path fill-rule="evenodd" clip-rule="evenodd" d="M10.7148 20.6032V21.3552L11.2054 21.3097C11.4755 21.2846 12.685 21.2076 13.8939 21.1386C15.1027 21.0695 16.1042 21.0012 16.1192 20.9871C16.138 20.969 16.189 20.1747 16.1717 20.1645C16.1529 20.1535 11.1473 19.8528 10.9699 19.8521H10.7148V20.6032Z" fill="white"/>
<path fill-rule="evenodd" clip-rule="evenodd" d="M27.3156 20.013C26.1499 20.0899 25.1523 20.1558 25.0981 20.1597C25.0322 20.1637 25 20.3081 25 20.5977C25 21.0224 25.0031 21.0295 25.23 21.0295C25.4992 21.0295 29.0165 21.239 29.847 21.305L30.4161 21.3497V19.8521L29.9255 19.8623C29.6555 19.8677 28.4812 19.936 27.3156 20.013Z" fill="white"/>
<path fill-rule="evenodd" clip-rule="evenodd" d="M15.1137 25.2107L13.0674 27.0279L13.5588 27.5232C13.8288 27.7956 14.0878 28.0091 14.1349 27.9973C14.2001 27.9808 16.8979 24.9894 17.6224 24.1291C17.7488 23.9792 17.7417 23.9595 17.4576 23.6825L17.1608 23.3928L15.1145 25.21" fill="white"/>
<path fill-rule="evenodd" clip-rule="evenodd" d="M23.665 23.7051L23.3887 23.9932L25.1564 25.9995C26.1289 27.1032 26.9609 28.0082 27.0049 28.0105C27.0496 28.0129 27.3071 27.7923 27.5779 27.5184L28.0701 27.0215L26.0904 25.2617C25.0017 24.2938 24.0724 23.483 24.026 23.4595C23.9797 23.4359 23.8173 23.5466 23.665 23.7051Z" fill="white"/>
<path fill-rule="evenodd" clip-rule="evenodd" d="M20.1321 25.1417C20.1321 25.2327 20.0615 26.4376 19.9767 27.8191C19.8919 29.2006 19.8213 30.3576 19.8213 30.3898C19.8213 30.422 20.1557 30.4487 20.5654 30.4487C21.2868 30.4487 21.3111 30.4432 21.3103 30.2721C21.3103 30.1747 21.2397 28.9824 21.1549 27.6229C21.0701 26.2634 20.9995 25.1111 20.9987 25.0632C20.9979 25.0106 20.8284 24.9761 20.5654 24.9761C20.1792 24.9761 20.1337 24.9933 20.1321 25.1417Z" fill="white"/>
<path fill-rule="evenodd" clip-rule="evenodd" d="M7.92824 31.5759C6.71236 32.6623 5.83166 33.5084 5.75003 33.6701C5.43684 34.2887 5.69273 35.0595 6.31597 35.3734C6.72963 35.5822 6.98945 35.5948 7.41253 35.4252C7.659 35.3263 8.11348 34.8617 9.56641 33.2235L11.4079 31.1465L10.7054 30.4448C10.3192 30.0586 9.99499 29.7454 9.98557 29.7486C9.97615 29.7517 9.04992 30.5743 7.92745 31.5767" fill="white"/>
<path fill-rule="evenodd" clip-rule="evenodd" d="M30.4094 30.4572L29.7344 31.1503L31.5649 33.2132C33.4416 35.3286 33.6897 35.546 34.2242 35.5468C34.5782 35.5468 35.0798 35.287 35.2878 34.9958C35.5469 34.6323 35.5869 33.9565 35.3702 33.6111C35.2321 33.3913 31.2627 29.7947 31.1339 29.7728C31.1072 29.768 30.7815 30.0765 30.4102 30.4572" fill="white"/>
<path fill-rule="evenodd" clip-rule="evenodd" d="M19.5569 34.9809C19.531 35.229 19.4502 36.4959 19.3764 37.7965C19.2445 40.1403 19.2445 40.1631 19.4 40.4653C19.5829 40.8193 19.9557 41.0972 20.345 41.1702C20.9722 41.2879 21.7148 40.8091 21.8262 40.2141C21.8796 39.9308 21.6724 35.5021 21.5742 34.8232L21.5319 34.5288H19.6033L19.5569 34.9801" fill="white"/>
<path fill-rule="evenodd" clip-rule="evenodd" d="M31.6378 13.3753C29.7077 10.4051 26.5734 8.29521 23.0616 7.60289C21.9611 7.38625 19.8739 7.32816 18.7821 7.48515C17.7726 7.62958 16.797 7.87683 15.9516 8.20101C9.58336 10.6437 6.12726 17.26 7.77485 23.8566C8.66969 27.4399 11.1721 30.5852 14.4767 32.2822C19.8205 35.0256 25.9768 33.9926 30.1425 29.6534C34.3624 25.2578 34.9817 18.5191 31.6386 13.3753H31.6378ZM30.6033 24.0113C29.5428 27.2013 26.8465 29.8002 23.6126 30.7523C21.089 31.4949 18.3818 31.2861 16.0042 30.1652C13.9727 29.2076 12.001 27.246 11.0206 25.2083C10.2812 23.6714 9.97583 22.3048 9.97975 20.5583C9.98289 19.191 10.1383 18.2632 10.5661 17.0504C11.9099 13.2411 15.3417 10.5142 19.4265 10.0095C19.5772 9.99068 20.2311 9.98911 20.8786 10.0048C23.695 10.0747 26.0483 11.0896 28.0608 13.1014C29.2728 14.3126 30.108 15.6525 30.6378 17.2349C31.035 18.4225 31.1543 19.1941 31.1559 20.5976C31.1574 22.012 31.053 22.658 30.6025 24.0121L30.6033 24.0113Z" fill="white"/>
<path fill-rule="evenodd" clip-rule="evenodd" d="M21.978 17.2122C21.5871 17.0333 21.3846 16.9956 20.7244 16.976C20.2911 16.9634 19.7998 16.9877 19.6326 17.0301C19.1436 17.1526 18.4348 17.5686 18.0211 17.9768C15.981 19.9846 16.9167 23.4015 19.7056 24.1276C21.5698 24.6134 23.6067 23.4133 24.0942 21.5427C24.5589 19.7594 23.6994 18.0003 21.9788 17.2122H21.978ZM21.6036 20.695C21.485 21.7437 20.1114 21.9737 19.6216 21.0263C19.3892 20.5773 19.5698 19.954 20.0093 19.6856C20.7574 19.2295 21.7009 19.8269 21.6036 20.695Z" fill="white"/>
<path fill-rule="evenodd" clip-rule="evenodd" d="M29.9044 9.8062L29.6768 10.044L30.4193 10.7677L31.1619 11.4915L30.4593 10.767L29.7568 10.0425L29.9837 9.80541C30.1085 9.67511 30.1932 9.56836 30.1721 9.56836C30.1509 9.56836 30.03 9.67511 29.9052 9.8062" fill="#FBFBFB"/>
<path fill-rule="evenodd" clip-rule="evenodd" d="M10.6983 10.7223L10.0154 11.4052L9.83483 11.2553L9.6543 11.1054L9.83169 11.2977L10.0091 11.49L10.7336 10.7655C11.1323 10.3668 11.4408 10.041 11.4188 10.041C11.3969 10.041 11.0727 10.3479 10.6967 10.7239" fill="#FBFBFB"/>
</svg>
